{"title":"[Check picture quality please] Time Warp - Heta tjejer - SWESUB","uid":5420299,"size":13790054,"categoryP":"video","categoryS":"other","magnet":"?xt=urn:btih:11d433026ebc49b60185c1969fe6a93fffbc36b8&amp;dn=%5BCheck+picture+quality+please%5D+Time+Warp+-+Heta+tjejer+-+SWESUB&amp;tr=udp%3A%2F%2Ftracker.openbittorrent.com%3A80&amp;tr=udp%3A%2F%2Fopen.demonii.com%3A1337&amp;tr=udp%3A%2F%2Ftracker.coppersurfer.tk%3A6969&amp;tr=udp%3A%2F%2Fexodus.desync.com%3A6969","seeders":0,"leechers":1,"uploader":"AnalogTV","files":1,"time":1268065204,"description":"I need your help! Please tell me what you think about this picture quality. The file is small, so it won't hard for you to download it. Watch it and write a comment.\n\nThe picture quality is low because it is low resolution, low bitrate and the antenna signal is analog and weak.\n\nIs it acceptable? I have at least 10 000 of hours of TV from Sweden to upload if this is acceptable.\n\nGeneral\nComplete name                    : [Check picture quality please] Time Warp - Heta tjejer - SWESUB - First 2 minutes - MPEG1 628 kbit - AnalogTV.mpg\nFormat                           : MPEG-PS\nFile size                        : 13.2 MiB\nDuration                         : 2mn 50s\nOverall bit rate                 : 646 Kbps\n\nVideo\nID                               : 224 (0xE0)\nFormat                           : MPEG Video\nFormat version                   : Version 1\nFormat settings, BVOP            : Yes\nFormat settings, Matrix          : Default\nDuration                         : 2mn 50s\nBit rate mode                    : Variable\nBit rate                         : 493 Kbps\nNominal bit rate                 : 512 Kbps\nWidth                            : 352 pixels\nHeight                           : 288 pixels\nDisplay aspect ratio             : 4:3\nFrame rate                       : 25.000 fps\nResolution                       : 8 bits\nScan type                        : Progressive\nBits/(Pixel*Frame)               : 0.194\nStream size                      : 10.0 MiB (76%)\n\nAudio\nID                               : 192 (0xC0)\nFormat                           : MPEG Audio\nFormat version                   : Version 1\nFormat profile                   : Layer 2\nDuration                         : 2mn 50s\nBit rate mode                    : Constant\nBit rate                         : 128 Kbps\nChannel(s)                       : 2 channels\nSampling rate                    : 44.1 KHz\nVideo delay                      : -14ms\nStream size                      : 2.60 MiB (20%)","torrent":{"xt":"urn:btih:11d433026ebc49b60185c1969fe6a93fffbc36b8","amp;dn":"%5BCheck+picture+quality+please%5D+Time+Warp+-+Heta+tjejer+-+SWESUB","amp;tr":["udp%3A%2F%2Ftracker.openbittorrent.com%3A80","udp%3A%2F%2Fopen.demonii.com%3A1337","udp%3A%2F%2Ftracker.coppersurfer.tk%3A6969","udp%3A%2F%2Fexodus.desync.com%3A6969"],"infoHash":"11d433026ebc49b60185c1969fe6a93fffbc36b8","infoHashBuffer":{"type":"Buffer","data":[17,212,51,2,110,188,73,182,1,133,193,150,159,230,169,63,255,188,54,184]},"announce":[],"urlList":[]}}